Coordinates
version=1
nRows=22
nColumns=24
inDegrees=yes

Units are S.I. units (second, meters, Newtons, ...)
Angles are in degrees.

endheader
time	pelvis_tilt	pelvis_list	pelvis_rotation	pelvis_tx	pelvis_ty	pelvis_tz	hip_flexion_r	hip_adduction_r	hip_rotation_r	knee_angle_r	ankle_angle_r	subtalar_angle_r	mtp_angle_r	hip_flexion_l	hip_adduction_l	hip_rotation_l	knee_angle_l	ankle_angle_l	subtalar_angle_l	mtp_angle_l	lumbar_extension	lumbar_bending	lumbar_rotation
      1.02916667	     -5.73717435	     -3.56185724	     -1.39838203	     -0.13416260	      1.01573846	      0.32350837	     -4.84119638	      9.81119831	      2.10715757	    -10.09587043	     11.40134378	     -4.11735534	      0.54131387	     25.16093973	     -3.68973865	     -3.37009366	      5.04739044	      3.35208645	     -2.40607247	     -5.80283377	     -1.26597723	      2.31164538	      7.40271767
      1.03333333	     -5.71789753	     -3.47531165	     -1.41639871	     -0.12875633	      1.01501809	      0.32309226	     -4.98774300	      9.68271935	      2.05688873	    -10.51847243	     11.67300892	     -3.96394376	      0.57503598	     25.23064684	     -3.47433332	     -3.23320666	      4.61367789	      3.47316330	     -2.25286261	     -5.66885366	     -1.28686173	      2.21538560	      7.43064701
      1.03750000	     -5.72121795	     -3.39778066	     -1.43201624	     -0.12335655	      1.01428306	      0.32266982	     -5.07419798	      9.56503757	      1.96774513	    -11.00861341	     11.90835054	     -3.80978853	      0.62073679	     25.34171039	     -3.26950902	     -3.11852651	      4.09408196	      3.54308285	     -2.09722777	     -5.46176126	     -1.28240555	      2.15145180	      7.46097004
      1.04166667	     -5.68855722	     -3.31194813	     -1.43261060	     -0.11791027	      1.01361167	      0.32228912	     -5.21817209	      9.45586705	      1.99017713	    -11.45870818	     12.03755452	     -3.89928096	      0.63316582	     25.39760151	     -3.05639101	     -2.91596457	      3.55725509	      3.54694406	     -2.08178848	     -5.41444144	     -1.31302827	      2.05260152	      7.47815429
      1.04583333	     -5.68076019	     -3.20652736	     -1.42567663	     -0.11243134	      1.01291065	      0.32187776	     -5.29442008	      9.31713790	      1.91884207	    -12.00130788	     12.31029972	     -3.70649321	      0.68741338	     25.50210420	     -2.82298281	     -2.77429889	      2.92579350	      3.59177098	     -1.95022828	     -5.19809225	     -1.29810198	      1.91787391	      7.50601603
      1.05000000	     -5.61415152	     -3.11317119	     -1.42327741	     -0.10694817	      1.01234261	      0.32150243	     -5.42669522	      9.20244917	      1.91294116	    -12.54494288	     12.38453240	     -3.80602100	      0.70315679	     25.52599578	     -2.60805944	     -2.60851572	      2.29980849	      3.49480095	     -1.94371473	     -5.13619655	     -1.37102255	      1.82114231	      7.52439947
      1.05416667	     -5.54653926	     -2.99346987	     -1.42026472	     -0.10141215	      1.01177222	      0.32112021	     -5.52680195	      9.05118378	      1.84413826	    -13.16957742	     12.59521238	     -3.65783177	      1.46681354	     25.55871346	     -2.37284613	     -2.55617562	      1.62627556	      3.32408105	     -1.79762039	     -1.85092622	     -1.43081029	      1.66214734	      7.53432380
      1.05833333	     -5.48391081	     -2.88248771	     -1.39952245	     -0.09586863	      1.01122253	      0.32074577	     -5.61784245	      8.92585229	      1.82979604	    -13.78599055	     12.62040680	     -3.78101307	      1.47347306	     25.58707183	     -2.14055542	     -2.34385234	      0.93956890	      3.18395692	     -1.85909055	     -1.83718045	     -1.48343125	      1.52852624	      7.55681290
      1.06250000	     -5.46548614	     -2.75425542	     -1.38426451	     -0.09027500	      1.01062743	      0.32038890	     -5.62517102	      8.77989603	      1.78401713	    -14.48727365	     12.74350848	     -3.74701045	      1.51316536	     25.64057431	     -1.89488490	     -2.07886421	      0.27834621	      2.90664913	     -2.06209621	     -1.76663097	     -1.45714211	      1.33430395	      7.58312505
      1.06666667	     -5.37548807	     -2.63949254	     -1.37381199	     -0.08469493	      1.01017436	      0.32000629	     -5.67685188	      8.64032325	      1.70161642	    -15.24570457	     12.80584691	     -3.69310155	      1.60309773	     25.60103377	     -1.66340877	     -1.78274703	     -0.35886636	      2.54188536	     -2.40664325	     -1.60457611	     -1.53952610	      1.20716042	      7.60934634
      1.07083333	     -5.32247999	     -2.51411189	     -1.35661780	     -0.07907939	      1.00969040	      0.31963211	     -5.67027239	      8.49802986	      1.64762453	    -16.03848669	     12.81106148	     -3.73094707	      1.73258807	     25.59987188	     -1.42310624	     -1.47819072	     -1.00540134	      2.13521567	     -2.75188833	     -1.39371660	     -1.56667281	      1.04821932	      7.61939710
      1.07500000	     -5.22575271	     -2.37592250	     -1.34070429	     -0.07343620	      1.00931607	      0.31925746	     -5.68707430	      8.33831923	      1.57744930	    -16.87332029	     12.78043883	     -3.75022672	      1.90175216	     25.53323630	     -1.17252629	     -1.16180809	     -1.62397501	      1.66341004	     -3.16620274	     -1.15309303	     -1.64755196	      0.86830201	      7.63609068
      1.07916667	     -5.16484739	     -2.24122272	     -1.32613310	     -0.06779324	      1.00891845	      0.31886972	     -5.62743581	      8.18049898	      1.48881190	    -17.77780703	     12.70776228	     -3.77125489	      2.10797461	     25.50535486	     -0.92816596	     -0.83133327	     -2.24788018	      1.15143406	     -3.62628982	     -0.90025838	     -1.67928798	      0.69748214	      7.65039988
      1.08333333	     -5.10198470	     -2.10273682	     -1.31025118	     -0.06212947	      1.00855759	      0.31847220	     -5.53923630	      8.01418408	      1.37490477	    -18.73673274	     12.59683657	     -3.76652836	      2.37292327	     25.46195327	     -0.68135189	     -0.47801831	     -2.84850130	      0.59467821	     -4.15443395	     -0.62166303	     -1.71768740	      0.51945057	      7.65661446
      1.08750000	     -5.02239360	     -1.94653704	     -1.30383203	     -0.05645353	      1.00827396	      0.31807027	     -5.43330975	      7.82072094	      1.24551114	    -19.75868476	     12.43913109	     -3.73325704	      2.65118355	     25.39302058	     -0.42404931	     -0.15946902	     -3.44138645	      0.00567653	     -4.67427794	     -0.37600936	     -1.76733838	      0.31990413	      7.66271291
      1.09166667	     -4.99210067	     -1.80100522	     -1.29523833	     -0.05078067	      1.00794562	      0.31764400	     -5.23322799	      7.63252756	      1.08191753	    -20.85067196	     12.22391409	     -3.69129081	      2.96955055	     25.37766070	     -0.17920064	      0.17798404	     -4.03836137	     -0.57688282	     -5.22514152	     -0.13948876	     -1.75680689	      0.13964710	      7.66566650
      1.09583333	     -4.90287131	     -1.62390277	     -1.29262245	     -0.04507509	      1.00777090	      0.31719778	     -5.06200239	      7.39273747	      0.86903092	    -22.00002295	     11.96422554	     -3.57689241	      3.39541951	     25.26975948	      0.09584058	      0.51871093	     -4.58447094	     -1.18371081	     -5.83791540	      0.12273895	     -1.82078762	     -0.07045331	      7.67209378
      1.10000000	     -4.87003611	     -1.46014363	     -1.29692806	     -0.03938697	      1.00754414	      0.31673951	     -4.78773368	      7.15894319	      0.64294269	    -23.21854945	     11.63554279	     -3.46029825	      3.87684114	     25.23537356	      0.34876891	      0.81642831	     -5.16198112	     -1.74626299	     -6.39187834	      0.36541384	     -1.80781967	     -0.26177224	      7.66867194
      1.10416667	     -4.78722559	     -1.27741455	     -1.29757217	     -0.03366872	      1.00746122	      0.31629096	     -4.55164872	      6.89818948	      0.41272952	    -24.43300762	     11.05228284	     -3.48413007	      7.94077164	     25.13807196	      0.61349925	      1.05844173	     -5.72854241	     -2.28377047	     -6.86998061	      2.02814263	     -1.85902173	     -0.50331949	      7.64063548
      1.10833333	     -4.71506657	     -1.08303041	     -1.31953016	     -0.02797514	      1.00739434	      0.31581363	     -4.24037274	      6.59486161	      0.11842679	    -25.78060359	     10.65370535	     -3.19510616	      8.02403299	     25.05260831	      0.87891854	      1.22141443	     -6.30472002	     -2.74877791	     -7.25371256	      2.02209177	     -1.91057093	     -0.74031258	      7.66005974
      1.11250000	     -4.64769248	     -0.87941435	     -1.33923399	     -0.02227110	      1.00737670	      0.31530782	     -3.89308650	      6.26778048	     -0.19755952	    -27.16523668	     10.13638729	     -2.94744389	      8.20171552	     24.95111552	      1.15724073	      1.44051894	     -6.84839115	     -3.19294356	     -7.75936906	      2.01199171	     -1.94097583	     -0.97289912	      7.65355721
      1.11666667	     -4.58185367	     -0.66496248	     -1.36498121	     -0.01656515	      1.00741700	      0.31481163	     -3.51142272	      5.91459204	     -0.52495073	    -28.59169951	      9.52427991	     -2.69208203	      8.44471183	     24.84545697	      1.43738287	      1.60752990	     -7.38981291	     -3.57116448	     -8.17650268	      1.99389289	     -1.97597434	     -1.23026545	      7.64086433
